<?xml version="1.0" encoding="UTF-8"?><svg id="Capa_2" xmlns="http://www.w3.org/2000/svg" viewBox="0 0 11.14 20.61"><defs><style>.cls-1{fill:#f9f9f7;}</style></defs><g id="Textos"><path class="cls-1" d="M10.72,0h-2.67c-3,0-4.94,1.99-4.94,5.07v2.34H.42c-.23,0-.42,.19-.42,.42v3.39c0,.23,.19,.42,.42,.42H3.11v8.55c0,.23,.19,.42,.42,.42h3.51c.23,0,.42-.19,.42-.42V11.64h3.14c.23,0,.42-.19,.42-.42v-3.39c0-.11-.04-.22-.12-.3s-.19-.12-.3-.12h-3.14v-1.98c0-.95,.23-1.44,1.47-1.44h1.8c.23,0,.42-.19,.42-.42V.42c0-.23-.19-.42-.42-.42Z"/></g></svg>