<svg xmlns="http://www.w3.org/2000/svg" viewBox="0 0 47 47"><defs><style>.cls-1{fill:#f9f9f7;}</style></defs><g id="Capa_2" data-name="Capa 2"><g id="Textos"><path class="cls-1" d="M23.5,47A23.5,23.5,0,1,1,47,23.5,23.52,23.52,0,0,1,23.5,47Zm0-45A21.5,21.5,0,1,0,45,23.5,21.52,21.52,0,0,0,23.5,2Z"/><path class="cls-1" d="M28.65,13.2H26A4.7,4.7,0,0,0,21,18.27v2.34H18.35a.42.42,0,0,0-.42.42v3.38a.42.42,0,0,0,.42.42H21v8.55a.41.41,0,0,0,.42.42H25a.42.42,0,0,0,.42-.42V24.83h3.14a.42.42,0,0,0,.43-.42V21a.42.42,0,0,0-.13-.3.4.4,0,0,0-.29-.12H25.38v-2c0-.95.23-1.43,1.47-1.43h1.8a.42.42,0,0,0,.42-.42V13.62A.42.42,0,0,0,28.65,13.2Z"/></g></g></svg>