<?xml version="1.0" encoding="UTF-8"?><svg id="Capa_2" xmlns="http://www.w3.org/2000/svg" viewBox="0 0 47 47"><defs><style>.cls-1{fill:#f9f9f7;}</style></defs><g id="Textos"><g><path class="cls-1" d="M23.5,47C10.54,47,0,36.46,0,23.5S10.54,0,23.5,0s23.5,10.54,23.5,23.5-10.54,23.5-23.5,23.5Zm0-45C11.64,2,2,11.65,2,23.5s9.64,21.5,21.5,21.5,21.5-9.65,21.5-21.5S35.36,2,23.5,2Z"/><g><path class="cls-1" d="M23.5,33.84c-.25,0-.48-.12-.63-.32-.9-1.2-1.69-2.24-2.39-3.16-4.04-5.32-4.88-6.43-4.88-9.24,0-4.35,3.54-7.9,7.9-7.9s7.9,3.54,7.9,7.9c0,2.8-.84,3.91-4.89,9.25l-.13,.17c-.66,.87-1.4,1.85-2.24,2.97-.15,.2-.38,.32-.63,.32Zm0-19.03c-3.48,0-6.32,2.83-6.32,6.32,0,2.28,.7,3.19,4.56,8.29,0,0,1.18,1.55,1.76,2.33,.64-.85,1.22-1.62,1.75-2.31,3.87-5.11,4.57-6.03,4.57-8.3,0-3.48-2.83-6.32-6.32-6.32Z"/><path class="cls-1" d="M26.5,21.12c0,1.65-1.35,3-3,3s-3-1.35-3-3,1.35-3,3-3,3,1.35,3,3Z"/></g></g></g></svg>