<svg xmlns="http://www.w3.org/2000/svg" viewBox="0 0 47 47"><defs><style>.cls-1{fill:#f9f9f7;}</style></defs><g id="Capa_2" data-name="Capa 2"><g id="Textos"><path class="cls-1" d="M23.5,47A23.5,23.5,0,1,1,47,23.5,23.52,23.52,0,0,1,23.5,47Zm0-45A21.5,21.5,0,1,0,45,23.5,21.52,21.52,0,0,0,23.5,2Z"/><path class="cls-1" d="M33.76,19.25a7.68,7.68,0,0,0-.48-2.5,5.2,5.2,0,0,0-1.2-1.83,5.13,5.13,0,0,0-1.82-1.19,7.74,7.74,0,0,0-2.5-.48c-1.11-.05-1.46-.06-4.26-.06s-3.15,0-4.25.06a7.74,7.74,0,0,0-2.5.48,5.21,5.21,0,0,0-3,3,7.14,7.14,0,0,0-.48,2.5c-.06,1.1-.07,1.45-.07,4.25s0,3.15.06,4.25a7.63,7.63,0,0,0,.48,2.5,5.26,5.26,0,0,0,3,3,7.68,7.68,0,0,0,2.5.48c1.1,0,1.45.06,4.25.06s3.15,0,4.25-.06a7.63,7.63,0,0,0,2.5-.48,5.26,5.26,0,0,0,3-3,7.63,7.63,0,0,0,.48-2.5c0-1.1.06-1.45.06-4.25S33.8,20.35,33.76,19.25ZM31.9,27.67a5.47,5.47,0,0,1-.36,1.91,3.37,3.37,0,0,1-1.95,2,5.87,5.87,0,0,1-1.92.36c-1.08.05-1.41.06-4.16.06s-3.08,0-4.17-.06a5.79,5.79,0,0,1-1.91-.36,3.35,3.35,0,0,1-1.95-1.95,5.53,5.53,0,0,1-.36-1.91c0-1.09-.06-1.42-.06-4.17s0-3.08.06-4.16a5.55,5.55,0,0,1,.36-1.92,3,3,0,0,1,.77-1.18,3.06,3.06,0,0,1,1.18-.77,5.87,5.87,0,0,1,1.92-.36c1.08,0,1.41-.06,4.16-.06s3.08,0,4.17.06a5.79,5.79,0,0,1,1.91.36,3.35,3.35,0,0,1,1.95,1.95,5.55,5.55,0,0,1,.36,1.92c.05,1.08.06,1.41.06,4.16S32,26.58,31.9,27.67Z"/><path class="cls-1" d="M23.5,18.21a5.3,5.3,0,1,0,5.3,5.29A5.29,5.29,0,0,0,23.5,18.21Zm0,8.73a3.44,3.44,0,1,1,3.44-3.44A3.44,3.44,0,0,1,23.5,26.94Z"/><path class="cls-1" d="M30.25,18A1.24,1.24,0,1,1,29,16.76,1.24,1.24,0,0,1,30.25,18Z"/></g></g></svg>