<?xml version="1.0" encoding="UTF-8"?><svg id="Capa_2" xmlns="http://www.w3.org/2000/svg" viewBox="0 0 20.62 20.62"><defs><style>.cls-1{fill:#f9f9f7;}</style></defs><g id="Textos"><g><path class="cls-1" d="M20.56,6.06c-.05-1.1-.23-1.85-.48-2.5-.26-.69-.66-1.31-1.19-1.83-.52-.52-1.14-.93-1.82-1.19-.66-.25-1.41-.43-2.5-.48-1.1-.05-1.45-.06-4.25-.06s-3.15,.01-4.25,.06c-1.1,.05-1.85,.23-2.5,.48-.69,.26-1.31,.66-1.83,1.19-.52,.52-.93,1.14-1.19,1.82-.25,.66-.43,1.41-.48,2.5-.05,1.1-.06,1.45-.06,4.25s.01,3.15,.06,4.25c.05,1.1,.23,1.85,.48,2.5,.26,.69,.67,1.31,1.19,1.83,.52,.52,1.14,.93,1.82,1.19,.66,.25,1.41,.43,2.5,.48,1.1,.05,1.45,.06,4.25,.06s3.15-.01,4.25-.06c1.1-.05,1.85-.23,2.5-.48,1.39-.54,2.48-1.63,3.02-3.02,.25-.66,.43-1.41,.48-2.5,.05-1.1,.06-1.45,.06-4.25s0-3.15-.05-4.25Zm-1.86,8.42c-.04,1.01-.21,1.55-.35,1.91-.35,.9-1.06,1.61-1.96,1.96-.36,.14-.91,.31-1.91,.35-1.09,.05-1.41,.06-4.17,.06s-3.08-.01-4.17-.06c-1.01-.04-1.55-.21-1.91-.35-.45-.17-.85-.43-1.18-.77-.34-.33-.6-.74-.77-1.18-.14-.36-.31-.91-.35-1.91-.05-1.09-.06-1.41-.06-4.17s.01-3.08,.06-4.17c.04-1.01,.21-1.55,.35-1.91,.17-.45,.43-.85,.77-1.18,.33-.34,.74-.6,1.18-.77,.36-.14,.91-.31,1.91-.35,1.09-.05,1.41-.06,4.17-.06s3.08,.01,4.17,.06c1.01,.04,1.55,.21,1.91,.35,.45,.17,.85,.43,1.18,.77,.34,.33,.6,.74,.77,1.18,.14,.36,.31,.91,.35,1.91,.05,1.09,.06,1.41,.06,4.17s-.01,3.07-.06,4.16Z"/><path class="cls-1" d="M10.31,5.02c-2.92,0-5.3,2.37-5.3,5.3s2.37,5.3,5.3,5.3,5.3-2.37,5.3-5.3-2.37-5.3-5.3-5.3Zm0,8.73c-1.9,0-3.44-1.54-3.44-3.44s1.54-3.44,3.44-3.44,3.44,1.54,3.44,3.44-1.54,3.44-3.44,3.44Z"/><path class="cls-1" d="M17.06,4.81c0,.68-.55,1.24-1.24,1.24s-1.24-.55-1.24-1.24,.55-1.24,1.24-1.24,1.24,.55,1.24,1.24Z"/></g></g></svg>