<?xml version="1.0" encoding="UTF-8"?><svg id="Capa_2" xmlns="http://www.w3.org/2000/svg" viewBox="0 0 60 62.84"><defs><style>.cls-1,.cls-2{fill:#fff;}.cls-2{fill-rule:evenodd;}</style></defs><g id="Objetos"><g><path class="cls-2" d="M48.84,21.4c-.07-.02-.13-.06-.15-.13-1.66-4.21-5.69-6.65-12.27-4.16-.14,.05-.28-.05-.28-.2,.04-5.05-3.05-11.43-3.63-14.79-.04-.21-.33-.24-.4-.04-1.03,2.8-1.73,4.63-2.04,7.24-.3,2.47,.53,2.77-.26,4.74-1.66,4.36,1.33,6.34-.51,6.73-.65,.12-3.09-3.71-9.08-5.55-.01,0-.03-.01-.04-.02-4.72-2.66-5.79-5.09-9.16-6.69C6.89,6.6,3.41,3.35,.83,.14,.57-.19,.06,.11,.21,.5c.44,1.12,7.3,16.55,8.59,19.14,2.41,4.82,2.36,4.41,4.52,7.36,2.54,3.48,5.63,6.19,5.88,6.34,.09,.05,.12,.17,.08,.26-.87,1.98-1.65,3.07-2.51,5.09-1.59,3.74-1.89,5.84-3.2,8.23-2.74,5.11-8.27,11.02-13.49,15.56-.19,.16,.02,.46,.24,.34,10.91-5.88,12.31-10.49,14.71-11.22,.12-.04,.27,.05,.27,.17-.13,1.73-.27,2.59-.81,3.99-.09,.23,.17,.43,.34,.24,2.85-3.08,6.52-7.83,9.54-9.89,1.96-1.34,3.49-1.46,5.55-2.35,11.93-5.19,7.5-10.77,12.98-16.3,2.12-2.14,2.62-1.74,5.61-3.48,.03-.02,.07-.02,.1-.03,.95-.16,3.34-.6,5.69-1.04,0,0-3.28-.89-5.44-1.52Z"/><path class="cls-1" d="M60,5.24c0,2.27-1.76,4.18-4.01,4.18s-3.98-1.89-3.98-4.15,1.75-4.18,4-4.18,3.99,1.87,3.99,4.15Zm-.67,0c0-1.87-1.44-3.42-3.31-3.42s-3.33,1.57-3.33,3.44,1.43,3.42,3.3,3.42,3.34-1.57,3.34-3.44Zm-2.45,.58l.92,1.38h-.78l-.74-1.25h-1.11v1.25h-.67V3.06h1.6c1.04,0,1.62,.51,1.62,1.42,0,.65-.29,1.11-.84,1.33Zm-.78-.45c.61,0,.98-.32,.98-.87s-.37-.84-.98-.84h-.93v1.71h.93Z"/></g></g></svg>