<svg xmlns="http://www.w3.org/2000/svg" viewBox="0 0 47 47"><defs><style>.cls-1,.cls-2{fill:#f9f9f7;}.cls-2{fill-rule:evenodd;}</style></defs><g id="Capa_2" data-name="Capa 2"><g id="Textos"><path class="cls-1" d="M23.5,47A23.5,23.5,0,1,1,47,23.5,23.52,23.52,0,0,1,23.5,47Zm0-45A21.5,21.5,0,1,0,45,23.5,21.53,21.53,0,0,0,23.5,2Z"/><path class="cls-2" d="M18.68,33.81H14.43V20.07h4.25V33.81ZM16.53,18.27h0a2.54,2.54,0,1,1,2.52-2.54,2.52,2.52,0,0,1-2.52,2.54ZM34.62,33.81H30.39V26.59c0-2-.76-3.08-2.32-3.08s-2.59,1.15-2.59,3.08v7.22H21.4V20.07h4.08v1.85a4.78,4.78,0,0,1,4.14-2.27c2.91,0,5,1.78,5,5.46Z"/></g></g></svg>