<?xml version="1.0" encoding="UTF-8"?><svg id="Capa_2" xmlns="http://www.w3.org/2000/svg" viewBox="0 0 45 45"><defs><style>.cls-1{fill:#f9f9f7;}</style></defs><g id="Textos"><g><path class="cls-1" d="M23.29,13.8c-4.69,0-8.51,3.79-8.51,8.44,0,1.85,.6,3.56,1.62,4.95l-1.06,3.13,3.27-1.04c1.34,.88,2.95,1.4,4.68,1.4,4.69,0,8.51-3.79,8.51-8.44,0-4.65-3.82-8.44-8.51-8.44Zm4.97,11.93c-.21,.57-1.22,1.13-1.67,1.17-.45,.04-.45,.37-2.98-.61-2.52-.99-4.11-3.55-4.24-3.72-.12-.16-1.01-1.33-1.01-2.55s.64-1.81,.87-2.05,.5-.31,.66-.31,.33,.02,.48,.02,.35-.08,.56,.41c.21,.49,.7,1.7,.76,1.83,.06,.12,.1,.27,.02,.43-.08,.16-.12,.27-.25,.41-.12,.14-.26,.32-.37,.43-.12,.12-.25,.26-.11,.5,.14,.25,.64,1.05,1.38,1.7,.95,.84,1.75,1.1,2,1.22,.25,.12,.39,.1,.54-.06,.15-.17,.62-.72,.78-.97,.17-.25,.33-.21,.56-.12,.23,.08,1.45,.68,1.69,.8,.25,.12,.41,.19,.48,.29,.06,.1,.06,.6-.14,1.17Z"/><path class="cls-1" d="M22.5,0C10.07,0,0,10.07,0,22.5s10.07,22.5,22.5,22.5,22.5-10.07,22.5-22.5S34.93,0,22.5,0Zm.79,32.27c-1.77,0-3.44-.45-4.89-1.25l-5.6,1.78,1.83-5.39c-.92-1.51-1.45-3.29-1.45-5.18,0-5.54,4.53-10.04,10.12-10.04,5.59,0,10.12,4.5,10.12,10.04s-4.53,10.04-10.12,10.04Z"/></g></g></svg>