<?xml version="1.0" encoding="UTF-8"?><svg id="Capa_2" xmlns="http://www.w3.org/2000/svg" viewBox="0 0 34.61 49.53"><defs><style>.cls-1{fill:#ecb72b;}.cls-2{fill:#da302b;}.cls-3{fill:#486cb3;}.cls-4{fill:#587cbd;}.cls-5{fill:#60a950;}</style></defs><g id="Capa_1-2"><g><path class="cls-1" d="M22.31,21.62l-5.14,7.59-7.6,7.56c-2.83-3.59-5.91-7.07-7.8-11.28l4.1-6.28,6.28-6.06c-2.1,2.6-1.94,6.41,.47,8.83,2.58,2.58,6.77,2.58,9.35,0,.12-.12,.23-.24,.33-.36h0Z"/><path class="cls-4" d="M22.43,21.48c2.12-2.6,1.97-6.43-.45-8.85-2.58-2.58-6.77-2.58-9.35,0-.11,.11-.21,.22-.31,.33l4.33-7.05L22.53,.81c4.39,1.39,8.03,4.49,10.12,8.51l-4.29,6.92-5.93,5.24Z"/><path class="cls-2" d="M12.16,13.15L1.78,25.49C.75,23.19,.08,20.67,0,17.8c0-.16,0-.33,0-.49C0,13.07,1.52,9.2,4.04,6.19l8.12,6.96Z"/><path class="cls-3" d="M12.16,13.15L4.04,6.19C7.21,2.41,11.98,0,17.3,0c1.82,0,3.58,.28,5.23,.8L12.16,13.15Z"/><path class="cls-5" d="M34.61,17.3c0-2.88-.7-5.6-1.95-7.99L9.57,36.77c2.62,3.34,5.02,6.77,6.02,10.98,.03,.13,.07,.29,.1,.47,.36,1.75,2.87,1.75,3.23,0,.04-.18,.07-.33,.1-.47,2.66-11.21,15.27-16.94,15.58-29.95,0-.16,0-.33,0-.49h0Z"/></g></g></svg>