<?xml version="1.0" encoding="UTF-8"?><svg id="Capa_2" xmlns="http://www.w3.org/2000/svg" viewBox="0 0 134.58 119.56"><defs><style>.cls-1{fill:#fff;}</style></defs><g id="Objetos"><path class="cls-1" d="M132.9,75.12l-7.49-18.16c.01-.07,.02-.14,.02-.22V6.33c0-3.49-2.84-6.33-6.33-6.33s-6.33,2.84-6.33,6.33v1.26C87.13-2.49,47.46-2.49,21.81,7.59v-1.26c0-3.49-2.84-6.33-6.33-6.33s-6.33,2.84-6.33,6.33V56.74c0,.07,0,.15,.02,.22L1.68,75.11c-1.06,1.64-1.68,3.59-1.68,5.68v37.28c0,.82,.66,1.48,1.48,1.48H26.56c.82,0,1.48-.66,1.48-1.48v-8.86H106.55v8.86c0,.82,.66,1.48,1.48,1.48h25.08c.82,0,1.48-.66,1.48-1.48v-37.28c0-2.09-.62-4.04-1.68-5.68ZM18.29,42.63H116.3l11.74,28.45c-1.22-.49-2.54-.77-3.93-.77H10.49c-1.39,0-2.72,.28-3.93,.77l11.74-28.45Zm7.22-2.96v-1.55c0-4.15,3.38-7.52,7.53-7.52h19.2c4.15,0,7.53,3.38,7.53,7.52v1.55H25.5Zm49.33,0v-1.55c0-4.15,3.38-7.52,7.53-7.52h19.2c4.15,0,7.53,3.38,7.53,7.52v1.55h-34.25ZM2.96,80.79c0-4.15,3.38-7.53,7.53-7.53H124.1c4.15,0,7.52,3.38,7.52,7.53v11.15H2.96v-11.15ZM12.12,6.33c0-1.86,1.51-3.37,3.37-3.37s3.37,1.51,3.37,3.37v3.47c0,.5,.25,.96,.67,1.24,.41,.27,.94,.32,1.4,.13C46.49,.23,88.1,.23,113.67,11.16c.46,.19,.98,.15,1.4-.13,.42-.27,.67-.74,.67-1.24v-3.47c0-1.86,1.51-3.37,3.37-3.37s3.37,1.51,3.37,3.37V49.83l-3.81-9.24c-.23-.55-.77-.92-1.37-.92h-5.25v-1.55c0-5.78-4.7-10.49-10.49-10.49h-19.2c-5.78,0-10.49,4.7-10.49,10.49v1.55h-9.15v-1.55c0-5.78-4.7-10.49-10.49-10.49h-19.2c-5.78,0-10.49,4.7-10.49,10.49v1.55h-5.25c-.6,0-1.14,.36-1.37,.92l-3.81,9.24V6.33Zm119.51,110.27h-22.12v-8.86c0-.82-.66-1.48-1.48-1.48H26.56c-.82,0-1.48,.66-1.48,1.48v8.86H2.96v-21.69H131.62v21.69Z"/></g></svg>