<?xml version="1.0" encoding="UTF-8"?>
<svg id="Capa_2" xmlns="http://www.w3.org/2000/svg" viewBox="0 0 410.55 52.12">
  <defs>
    <style>
      .cls-1 { fill: #656a76; } /* Cambia el color de todos los elementos path */
    </style>
  </defs>
  <g id="Textos">
    <g>
      <path class="cls-1" d="M11.25,28.57h1.65c4.53,0,8.96-2.11,8.96-9.09,0-7.62-3.79-9.47-9.12-9.47h-2.45V42.72c0,5.5,.32,5.89,2.51,6.59l2.35,.77v.89H0v-.89l2.35-.77c2.19-.7,2.51-1.09,2.51-6.59V16.03c0-5.5-.32-5.89-2.51-6.59l-2.35-.77v-.89H14.72c6.13,0,13.07,1.34,13.07,10.56,0,6.27-4.69,9.79-9.55,11.14,2.83,4.22,6.24,9.41,9.01,13.25,3.04,4.22,4.43,6.08,5.87,6.66l1.76,.7v.89l-8.91,.06c-3.36-5.18-11.41-17.02-14.72-22.46"/>
      <path class="cls-1" d="M43.16,29.47c0-14.21,9.33-22.91,18.56-22.91,9.92,0,18.61,7.04,18.61,22.91,0,13.06-8.53,22.53-18.61,22.53-10.88,0-18.56-7.68-18.56-22.53m30.93,0c0-14.72-6.29-20.42-12.43-20.42-5.76,0-12.32,5.38-12.32,20.42s6.08,19.97,12.37,19.97,12.37-5.44,12.37-19.97"/>
      <path class="cls-1" d="M98.32,50.08l2.35-.77c2.19-.7,2.51-1.09,2.51-6.59v-8.06c0-2.56-.11-3.01-1.12-4.99l-7.04-13.63c-2.77-5.44-3.47-6.08-4.91-6.72l-1.49-.64v-.9h15.79v.9l-2.77,.77c-2.29,.64-2.99,1.79-.53,6.59l6.13,12.16,4.21-9.09c3.36-7.3,3.79-9.02,1.44-9.67l-2.72-.77v-.9h12.43v.9l-1.49,.64c-2.08,.89-2.67,2.11-5.65,8.13l-5.81,11.58c-.96,1.86-1.01,2.69-1.01,4.86v8.83c0,5.5,.32,5.89,2.51,6.59l2.35,.77v.9h-15.15v-.9Z"/>
      <path class="cls-1" d="M130.87,50.08l1.49-.64c2.08-.9,2.51-1.6,4.8-8.13l12.11-34.69h2.61l11.62,36.1c1.71,5.31,2.24,5.82,4.32,6.72l1.49,.64v.9h-15.15v-.9l2.35-.77c2.19-.7,2.72-1.47,1.12-6.59l-2.24-7.3h-13.28l-1.39,4.22c-2.56,7.81-2.13,8.83,.27,9.66l2.24,.77v.9h-12.37v-.9Zm23.73-17.34l-4-13.06s-1.33-4.48-1.49-5.5h-.11c-.16,.9-1.65,5.5-1.65,5.5l-4.32,13.06h11.57Z"/>
      <path class="cls-1" d="M177.61,50.08l2.35-.77c2.19-.7,2.51-1.09,2.51-6.59V16.03c0-5.5-.32-5.89-2.51-6.59l-2.35-.77v-.9h16.21v.9l-3.15,.77c-2.24,.58-2.77,1.09-2.77,6.59v25.73c0,6.02,.75,6.59,2.93,6.59h3.36c5.49,0,7.25-.9,8.11-3.65l1.28-4.22,1.12,.26-1.71,10.24h-25.39v-.9Z"/>
      <path class="cls-1" d="M231.57,16.03c-1.71-5.31-2.24-5.82-4.32-6.72l-1.49-.64v-.9h15.15v.9l-2.35,.77c-2.19,.7-2.67,1.47-1.12,6.59l6.83,22.66c.59,1.98,1.28,4.54,1.44,5.57h.11c.16-.9,.8-2.82,1.71-5.57l6.51-19.58c2.61-7.81,2.13-8.83-.27-9.66l-2.24-.77v-.9h12.48v.9l-1.49,.64c-2.08,.89-2.56,1.6-4.8,8.13l-12.05,34.69h-2.56l-11.52-36.1Z"/>
      <path class="cls-1" d="M274.83,50.08l2.35-.77c2.19-.7,2.51-1.09,2.51-6.59V16.03c0-5.5-.32-5.89-2.51-6.59l-2.35-.77v-.9h15.15v.9l-2.35,.77c-2.19,.7-2.51,1.09-2.51,6.59v26.69c0,5.5,.32,5.89,2.51,6.59l2.35,.77v.9h-15.15v-.9Z"/>
      <path class="cls-1" d="M300.82,50.08l2.35-.77c2.19-.7,2.51-1.09,2.51-6.59V16.03c0-5.5-.32-5.89-2.51-6.59l-2.35-.77v-.9h25.17v8.51h-.85l-.64-2.88c-.53-2.37-1.71-3.01-7.68-3.01h-5.71V26.84h5.65c4.91,0,5.65-.19,6.19-2.43l.59-2.37h.8v12.54h-.8l-.64-2.69c-.53-2.24-1.23-2.43-6.13-2.43h-5.65v12.29c0,6.02,.75,6.59,2.93,6.59h4.11c5.49,0,7.04-1.02,8.11-3.65l1.17-2.94,.91,.26-1.6,8.96h-25.92v-.9Z"/>
      <path class="cls-1" d="M344.77,16.03c-1.07-5.57-2.03-5.82-4.11-6.72l-1.49-.64v-.9h15.04v.9l-2.24,.77c-2.19,.77-2.4,1.22-1.44,6.59l3.68,20.99c.37,1.98,.85,4.8,.91,5.76h.11c.16-.96,.85-3.39,1.55-5.63l9.17-29.57h2.35l8.11,29.31c.64,2.24,1.17,4.67,1.33,5.63h.11c.05-.96,.59-3.78,.96-5.76l3.25-17.66c1.39-7.55,1.07-8.83-1.33-9.66l-2.24-.77v-.9h12.53v.9l-1.49,.64c-2.08,.89-2.88,1.47-4.21,8.13l-6.83,34.62h-3.09l-8.27-29.38c-.69-2.43-1.17-4.67-1.28-5.5h-.11c-.11,.64-.8,3.01-1.55,5.38l-9.39,29.5h-3.09l-6.93-36.03Z"/>
      <path class="cls-1" d="M410.55,4.52c0,2.47-1.91,4.55-4.37,4.55s-4.33-2.05-4.33-4.52,1.9-4.55,4.36-4.55,4.34,2.04,4.34,4.52m-.73,0c0-2.04-1.57-3.72-3.61-3.72s-3.62,1.71-3.62,3.75,1.56,3.72,3.6,3.72,3.64-1.71,3.64-3.75m-2.67,.63l1,1.51h-.85l-.81-1.36h-1.21v1.36h-.73V2.15h1.75c1.13,0,1.76,.56,1.76,1.55,0,.71-.32,1.21-.91,1.45m-.85-.49c.67,0,1.07-.35,1.07-.95s-.4-.92-1.07-.92h-1.02v1.87h1.02Z"/>
    </g>
  </g>
</svg>
