<?xml version="1.0" encoding="UTF-8"?><svg id="Capa_2" xmlns="http://www.w3.org/2000/svg" viewBox="0 0 148.74 128"><defs><style>.cls-1{fill:#fff;}</style></defs><g id="Objetos"><g><path class="cls-1" d="M133.77,13.49H14.97c-.82,0-1.48,.66-1.48,1.48V88.47c0,.82,.66,1.48,1.48,1.48h118.8c.82,0,1.48-.66,1.48-1.48V14.97c0-.82-.66-1.48-1.48-1.48Zm-1.48,73.5H16.45V16.45h115.84V86.99Z"/><path class="cls-1" d="M141.99,0H6.75C3.03,0,0,3.03,0,6.75V96.69c0,3.72,3.03,6.75,6.75,6.75H63.73v9.62l-20.94,4.83c-.67,.15-1.15,.75-1.15,1.44v7.19c0,.82,.66,1.48,1.48,1.48h62.49c.82,0,1.48-.66,1.48-1.48v-7.19c0-.69-.48-1.29-1.15-1.44l-20.94-4.83v-9.62h56.99c3.72,0,6.75-3.03,6.75-6.75V6.75c0-3.72-3.03-6.75-6.75-6.75Zm-58.8,115.68l20.94,4.83v4.53H44.6v-4.53l20.94-4.83c.67-.15,1.15-.75,1.15-1.44v-10.8h15.35v10.8c0,.69,.48,1.29,1.15,1.44Zm62.58-18.99c0,2.09-1.7,3.78-3.78,3.78H6.75c-2.09,0-3.78-1.7-3.78-3.78V6.75c0-2.09,1.7-3.78,3.78-3.78H141.99c2.09,0,3.78,1.7,3.78,3.78V96.69Z"/></g></g></svg>