<?xml version="1.0" encoding="UTF-8"?><svg id="Capa_2" xmlns="http://www.w3.org/2000/svg" viewBox="0 0 22.84 18.56"><defs><style>.cls-1{fill:#f9f9f7;fill-rule:evenodd;}</style></defs><g id="Textos"><path class="cls-1" d="M20.5,4.62c.3,6.59-4.62,13.94-13.32,13.94-2.65,0-5.11-.78-7.18-2.11,2.49,.29,4.97-.4,6.94-1.94-2.05-.04-3.78-1.39-4.38-3.25,.73,.14,1.46,.1,2.12-.08-2.25-.45-3.81-2.48-3.76-4.65,.63,.35,1.35,.56,2.12,.59C.95,5.72,.36,2.96,1.59,.86,3.9,3.69,7.35,5.56,11.25,5.75c-.68-2.93,1.54-5.75,4.56-5.75,1.35,0,2.56,.57,3.42,1.48,1.07-.21,2.07-.6,2.98-1.14-.35,1.09-1.09,2.01-2.06,2.59,.95-.11,1.85-.37,2.69-.74-.63,.94-1.42,1.77-2.34,2.43Z"/></g></svg>