<svg xmlns="http://www.w3.org/2000/svg" viewBox="0 0 47 47"><defs><style>.cls-1,.cls-2{fill:#f9f9f7;}.cls-2{fill-rule:evenodd;}</style></defs><g id="Capa_2" data-name="Capa 2"><g id="Textos"><path class="cls-1" d="M23.5,47A23.5,23.5,0,1,1,47,23.5,23.52,23.52,0,0,1,23.5,47Zm0-45A21.5,21.5,0,1,0,45,23.5,21.52,21.52,0,0,0,23.5,2Z"/><path class="cls-2" d="M33.58,18.84a13.32,13.32,0,0,1-20.5,11.83A9.37,9.37,0,0,0,20,28.73a4.69,4.69,0,0,1-4.38-3.25,4.71,4.71,0,0,0,2.12-.08A4.69,4.69,0,0,1,14,20.75a4.6,4.6,0,0,0,2.12.58,4.7,4.7,0,0,1-1.45-6.25A13.31,13.31,0,0,0,24.33,20a4.69,4.69,0,0,1,8-4.27,9.36,9.36,0,0,0,3-1.14,4.63,4.63,0,0,1-2.06,2.59,9.31,9.31,0,0,0,2.69-.73A9.45,9.45,0,0,1,33.58,18.84Z"/></g></g></svg>