<?xml version="1.0" encoding="UTF-8"?><svg id="Capa_2" xmlns="http://www.w3.org/2000/svg" viewBox="0 0 50.03 50"><defs><style>.cls-1{fill:#0db04b;fill-rule:evenodd;}</style></defs><g id="Objetos"><path class="cls-1" d="M4.78,24.49c0-4.83,1.68-9.3,4.63-12.95,.44-.55,.79-.86,1.21-1.39l1.29-1.2c3.14-2.77,8.27-4.97,12.73-4.97,2.37,0,3.55,0,5.91,.61,1.36,.35,2.48,.81,3.68,1.32l3.15,1.85c.48,.36,.99,.69,1.41,1.09,.27,.26,.39,.31,.65,.54,.24,.21,.42,.42,.65,.65,7.06,7.05,8.09,18.93,1.64,26.87-2.59,3.19-5.58,5.49-9.65,6.84-5.45,1.82-12,1.35-16.78-1.54-.22-.13-.39-.24-.61-.37-.76-.47-.32-.46-2.21,.12-1.03,.31-2.09,.66-3.12,1l-3.16,.96c.36-.75,2.5-7.38,2.5-7.49l-1.47-2.43c-.29-.48-.38-.81-.62-1.33-.63-1.36-1.17-3.01-1.44-4.53-.19-1.04-.37-2.52-.37-3.64h0Zm8.68-6.08c0,1.93,.07,2.65,.98,4.45,.72,1.43,.89,1.49,1.67,2.67l.91,1.26c1.7,2.07,1.19,1.51,3.09,3.42,2.47,2.47,4.97,3.65,8.21,4.82,2.71,.98,5.15,1.41,7.63-.43,1.18-.87,1.78-1.72,1.93-3.28,.04-.46,.09-.75,.05-1.01-.12-.79-1.23-.98-2.36-1.55-1.3-.65-3.52-2.08-4.26-1.3l-1.92,2.43c-.33,.4-.67,.55-1.23,.32-2.3-.95-4.73-2.47-6.31-4.34-.58-.69-1.02-1.3-1.53-2.05-.69-1.03-.97-1.28,0-2.23,.46-.45,1.38-1.54,1.38-2.31,0-.37-.2-.6-.32-.87-.13-.27-.22-.55-.34-.85l-1.09-2.6c-.78-1.93-.82-1.56-2.04-1.65-1.47-.12-2,.02-3.14,1.54-.62,.83-1.32,2.15-1.32,3.57h0ZM.87,23.41c0,3.71,.08,5.27,1.26,8.83,.38,1.13,1.24,3.1,1.89,4.19,.44,.73,.34,.57,.03,1.46-.3,.89-4.01,11.51-4.06,12.12,.54-.01,9.33-2.87,10.84-3.38,4.44-1.49,1.54-.68,7.38,1.11,17.23,5.28,33.75-9.23,31.62-26.08-.12-.94-.24-1.81-.43-2.61-.9-3.77-3.02-8.3-5.75-10.97-.34-.33-.41-.46-.71-.81l-3.31-2.77c-1.54-1.03-2.18-1.38-3.86-2.22-2.1-1.05-4.7-1.72-7.07-2.05-2.69-.38-5.53-.27-8.22,.27-.84,.17-1.63,.36-2.42,.62-3.04,1.01-4.46,1.75-7.1,3.54l-1.68,1.36c-.35,.29-.48,.38-.81,.71-2.35,2.38-3.57,3.8-5.16,6.99-1.19,2.37-2.46,6.21-2.46,9.7Z"/></g></svg>