<?xml version="1.0" encoding="UTF-8"?><svg id="Capa_2" xmlns="http://www.w3.org/2000/svg" viewBox="0 0 49.53 46.43"><defs><style>.cls-1{fill:#bddef6;}.cls-2{fill:#37474f;}.cls-3{fill:#465b65;}</style></defs><g id="Capa_1-2"><g><path class="cls-1" d="M27.86,38.69c11.11,0,20.12-8.31,20.12-18.57S38.97,1.55,27.86,1.55,7.74,9.86,7.74,20.12c0,0,1.45,9.29-6.19,9.29,0,7.74,13.93,9.29,26.31,9.29"/><path class="cls-3" d="M27.86,40.24C9.11,40.24,0,36.7,0,29.41c0-.85,.69-1.55,1.55-1.55,1.54,0,2.66-.44,3.43-1.34,1.81-2.11,1.24-6.12,1.24-6.16C6.19,9.03,15.91,0,27.86,0s21.67,9.03,21.67,20.12-9.72,20.12-21.67,20.12ZM3.33,30.79c1.47,4.16,9.88,6.35,24.53,6.35,10.24,0,18.57-7.64,18.57-17.03S38.1,3.1,27.86,3.1,9.29,10.73,9.29,20.12h0s.79,5.2-1.96,8.41c-1.02,1.19-2.36,1.95-4,2.26Z"/><g><circle class="cls-2" cx="34.05" cy="40.24" r="6.19"/><circle class="cls-2" cx="15.48" cy="40.24" r="6.19"/></g><g><path class="cls-3" d="M21.73,17.03c-.85,0-1.56-.69-1.56-1.55s.68-1.55,1.53-1.55h.03c.85,0,1.55,.69,1.55,1.55s-.69,1.55-1.55,1.55Z"/><path class="cls-3" d="M34.11,17.03c-.85,0-1.56-.69-1.56-1.55s.68-1.55,1.53-1.55h.03c.85,0,1.55,.69,1.55,1.55s-.69,1.55-1.55,1.55Z"/><path class="cls-3" d="M27.86,30.96c-4.46,0-8.27-3.04-9.25-7.4-.19-.84,.34-1.66,1.17-1.85,.84-.18,1.66,.33,1.85,1.17,.66,2.93,3.22,4.98,6.23,4.98s5.57-2.05,6.23-4.98c.19-.83,1.01-1.36,1.85-1.17,.84,.19,1.36,1.02,1.17,1.85-.98,4.36-4.79,7.4-9.25,7.4Z"/></g></g></g></svg>