<?xml version="1.0" encoding="UTF-8"?><svg id="Capa_2" xmlns="http://www.w3.org/2000/svg" viewBox="0 0 20.61 20.61"><defs><style>.cls-1{fill:#f9f9f7;}</style></defs><g id="Textos"><path class="cls-1" d="M20.61,10.04c0,5.54-4.53,10.04-10.12,10.04-1.77,0-3.44-.45-4.89-1.25l-5.6,1.78,1.83-5.39c-.92-1.51-1.45-3.29-1.45-5.18,0-5.54,4.53-10.04,10.12-10.04,5.59,0,10.12,4.5,10.12,10.04ZM10.49,1.6C5.8,1.6,1.99,5.39,1.99,10.04c0,1.85,.6,3.56,1.62,4.95l-1.06,3.13,3.27-1.04c1.34,.88,2.95,1.4,4.68,1.4,4.69,0,8.51-3.79,8.51-8.44,0-4.65-3.82-8.44-8.51-8.44Zm5.11,10.75c-.06-.1-.23-.16-.48-.29-.25-.12-1.47-.72-1.69-.8-.23-.08-.39-.12-.56,.12-.16,.25-.64,.8-.78,.97-.14,.16-.29,.19-.54,.06-.25-.13-1.05-.38-2-1.22-.74-.65-1.24-1.46-1.38-1.7-.15-.25-.01-.38,.11-.5,.11-.11,.25-.29,.37-.43,.12-.14,.17-.24,.25-.41,.08-.16,.04-.31-.02-.43-.06-.12-.56-1.33-.76-1.83-.21-.49-.41-.41-.56-.41s-.31-.02-.48-.02-.43,.06-.66,.31-.87,.84-.87,2.05,.89,2.38,1.01,2.55c.13,.16,1.72,2.73,4.24,3.72,2.52,.98,2.52,.66,2.98,.61,.46-.04,1.47-.59,1.67-1.17,.21-.58,.21-1.07,.14-1.17Z"/></g></svg>