<svg xmlns="http://www.w3.org/2000/svg" viewBox="0 0 47 47"><defs><style>.cls-1{fill:#f9f9f7;}</style></defs><g id="Capa_2" data-name="Capa 2"><g id="Textos"><path class="cls-1" d="M23.5,47A23.5,23.5,0,1,1,47,23.5,23.52,23.52,0,0,1,23.5,47Zm0-45A21.5,21.5,0,1,0,45,23.5,21.52,21.52,0,0,0,23.5,2Z"/><path class="cls-1" d="M34.41,23.23a10.15,10.15,0,0,1-15,8.8L13.8,33.8l1.82-5.38a10,10,0,0,1-1.45-5.19,10.12,10.12,0,0,1,20.24,0ZM24.29,14.8a8.48,8.48,0,0,0-8.51,8.44,8.33,8.33,0,0,0,1.62,4.94l-1.06,3.14,3.27-1A8.46,8.46,0,1,0,24.29,14.8ZM29.4,25.55a1.33,1.33,0,0,0-.48-.29c-.25-.12-1.47-.72-1.69-.8s-.4-.12-.56.12-.64.8-.79,1-.29.18-.53.06a6.66,6.66,0,0,1-2-1.22A7.31,7.31,0,0,1,22,22.69c-.14-.25,0-.38.11-.5s.25-.29.37-.44a1.33,1.33,0,0,0,.25-.41.46.46,0,0,0,0-.43c-.06-.12-.56-1.33-.77-1.82s-.41-.41-.55-.41l-.48,0a.94.94,0,0,0-.66.3A2.74,2.74,0,0,0,19.35,21a4.77,4.77,0,0,0,1,2.55,10.27,10.27,0,0,0,4.24,3.72c2.52,1,2.52.65,3,.61a2.51,2.51,0,0,0,1.67-1.17A2.05,2.05,0,0,0,29.4,25.55Z"/></g></g></svg>