<?xml version="1.0" encoding="utf-8"?>
<!-- Generator: Adobe Illustrator 28.1.0, SVG Export Plug-In . SVG Version: 6.00 Build 0)  -->
<svg version="1.1" id="Capa_1" xmlns="http://www.w3.org/2000/svg" xmlns:xlink="http://www.w3.org/1999/xlink" x="0px" y="0px"
	 viewBox="0 0 160 160" style="enable-background:new 0 0 160 160;" xml:space="preserve">
<style type="text/css">
	.st0{fill:url(#SVGID_1_);}
	.st1{fill:#FFFFFF;}
</style>
<linearGradient id="SVGID_1_" gradientUnits="userSpaceOnUse" x1="13.0872" y1="118.7101" x2="146.9128" y2="41.4458">
	<stop  offset="0" style="stop-color:#FBE18A"/>
	<stop  offset="0.17" style="stop-color:#FCBB45"/>
	<stop  offset="0.391" style="stop-color:#F75274"/>
	<stop  offset="0.6552" style="stop-color:#D53692"/>
	<stop  offset="0.8394" style="stop-color:#8F39CE"/>
	<stop  offset="0.985" style="stop-color:#5B4FE9"/>
</linearGradient>
<circle class="st0" cx="80" cy="80.1" r="77.3"/>
<path class="st1" d="M68.6,80c0-6.3,5.1-11.4,11.4-11.4c6.3,0,11.4,5.1,11.4,11.4c0,6.3-5.1,11.4-11.4,11.4
	C73.7,91.4,68.6,86.3,68.6,80 M62.4,80c0,9.7,7.9,17.6,17.6,17.6S97.6,89.7,97.6,80S89.7,62.4,80,62.4S62.4,70.3,62.4,80 M94.2,61.7
	c0,2.3,1.8,4.1,4.1,4.1c2.3,0,4.1-1.8,4.1-4.1c0-2.3-1.8-4.1-4.1-4.1h0C96,57.6,94.2,59.5,94.2,61.7 M66.2,107.8
	c-3.3-0.2-5.1-0.7-6.4-1.2c-1.6-0.6-2.7-1.4-3.9-2.6c-1.2-1.2-1.9-2.3-2.6-3.9c-0.5-1.2-1-3-1.2-6.4C52,90.2,52,89.1,52,80
	s0-10.2,0.2-13.8c0.2-3.3,0.7-5.1,1.2-6.4c0.6-1.6,1.4-2.7,2.6-3.9c1.2-1.2,2.3-1.9,3.9-2.6c1.2-0.5,3-1,6.4-1.2
	C69.8,52,70.9,52,80,52s10.2,0,13.8,0.2c3.3,0.2,5.1,0.7,6.4,1.2c1.6,0.6,2.7,1.4,3.9,2.6s1.9,2.3,2.6,3.9c0.5,1.2,1,3,1.2,6.4
	c0.2,3.6,0.2,4.7,0.2,13.8s0,10.2-0.2,13.8c-0.2,3.3-0.7,5.1-1.2,6.4c-0.6,1.6-1.4,2.7-2.6,3.9c-1.2,1.2-2.3,1.9-3.9,2.6
	c-1.2,0.5-3,1-6.4,1.2C90.2,108,89.1,108,80,108S69.8,108,66.2,107.8 M65.9,46c-3.6,0.2-6.1,0.7-8.3,1.6c-2.2,0.9-4.2,2-6.1,3.9
	c-1.9,1.9-3.1,3.8-3.9,6.1c-0.8,2.2-1.4,4.7-1.6,8.3c-0.2,3.6-0.2,4.8-0.2,14.1s0,10.5,0.2,14.1c0.2,3.6,0.7,6.1,1.6,8.3
	c0.9,2.2,2,4.2,3.9,6.1c1.9,1.9,3.8,3.1,6.1,3.9c2.2,0.8,4.7,1.4,8.3,1.6c3.6,0.2,4.8,0.2,14.1,0.2s10.5,0,14.1-0.2
	c3.6-0.2,6.1-0.7,8.3-1.6c2.2-0.9,4.2-2,6.1-3.9c1.9-1.9,3.1-3.8,3.9-6.1c0.8-2.2,1.4-4.7,1.6-8.3c0.2-3.7,0.2-4.8,0.2-14.1
	s0-10.5-0.2-14.1c-0.2-3.6-0.7-6.1-1.6-8.3c-0.9-2.2-2-4.2-3.9-6.1c-1.9-1.9-3.8-3.1-6.1-3.9c-2.2-0.8-4.7-1.4-8.3-1.6
	c-3.6-0.2-4.8-0.2-14.1-0.2S69.5,45.8,65.9,46"/>
</svg>
